<svg width="60" height="60" viewBox="0 0 60 60" fill="none" xmlns="http://www.w3.org/2000/svg">
<path d="M30.0067 14.6168C21.4936 14.6168 14.6269 21.485 14.6269 30C14.6269 38.515 21.4936 45.3832 30.0067 45.3832C38.5198 45.3832 45.3865 38.515 45.3865 30C45.3865 21.485 38.5198 14.6168 30.0067 14.6168ZM30.0067 40.0011C24.5053 40.0011 20.0078 35.516 20.0078 30C20.0078 24.484 24.4919 19.9989 30.0067 19.9989C35.5215 19.9989 40.0056 24.484 40.0056 30C40.0056 35.516 35.5081 40.0011 30.0067 40.0011ZM49.6029 13.9875C49.6029 15.9824 47.9967 17.5756 46.0156 17.5756C44.0212 17.5756 42.4283 15.969 42.4283 13.9875C42.4283 12.006 44.0346 10.3994 46.0156 10.3994C47.9967 10.3994 49.6029 12.006 49.6029 13.9875ZM59.7892 17.6291C59.5616 12.8227 58.464 8.56521 54.9437 5.05746C51.4367 1.5497 47.1801 0.451858 42.3748 0.210867C37.4222 -0.070289 22.5778 -0.070289 17.6252 0.210867C12.8332 0.438469 8.57669 1.53632 5.05633 5.04407C1.53597 8.55182 0.451757 12.8093 0.21082 17.6158C-0.0702733 22.5695 -0.0702733 37.4172 0.21082 42.3709C0.438371 47.1773 1.53597 51.4348 5.05633 54.9425C8.57669 58.4503 12.8199 59.5481 17.6252 59.7891C22.5778 60.0703 37.4222 60.0703 42.3748 59.7891C47.1801 59.5615 51.4367 58.4637 54.9437 54.9425C58.4506 51.4348 59.5482 47.1773 59.7892 42.3709C60.0703 37.4172 60.0703 22.5828 59.7892 17.6291ZM53.391 47.686C52.3469 50.3102 50.3257 52.3318 47.6888 53.3895C43.7401 54.9559 34.3703 54.5944 30.0067 54.5944C25.6431 54.5944 16.2599 54.9425 12.3246 53.3895C9.70106 52.3452 7.67987 50.3236 6.62242 47.686C5.05633 43.7365 5.41774 34.3646 5.41774 30C5.41774 25.6354 5.06972 16.2501 6.62242 12.314C7.66648 9.68984 9.68767 7.66819 12.3246 6.61051C16.2733 5.04407 25.6431 5.40556 30.0067 5.40556C34.3703 5.40556 43.7535 5.05746 47.6888 6.61051C50.3123 7.6548 52.3335 9.67645 53.391 12.314C54.9571 16.2635 54.5957 25.6354 54.5957 30C54.5957 34.3646 54.9571 43.7499 53.391 47.686Z" fill="white"/>
</svg>
