<svg width="18" height="18" viewBox="0 0 18 18" fill="none" xmlns="http://www.w3.org/2000/svg">
<path d="M2 18C1.45 18 0.979002 17.804 0.587002 17.412C0.195002 17.02 -0.000664969 16.5493 1.69779e-06 16V12H2V16H16V2H2V6H1.69779e-06V2C1.69779e-06 1.45 0.196002 0.979002 0.588002 0.587002C0.980002 0.195002 1.45067 -0.000664969 2 1.69779e-06H16C16.55 1.69779e-06 17.021 0.196002 17.413 0.588002C17.805 0.980002 18.0007 1.45067 18 2V16C18 16.55 17.804 17.021 17.412 17.413C17.02 17.805 16.5493 18.0007 16 18H2ZM7.5 14L6.1 12.55L8.65 10H1.69779e-06V8H8.65L6.1 5.45L7.5 4L12.5 9L7.5 14Z" fill="white"/>
</svg>
