<svg width="51" height="52" viewBox="0 0 51 52" fill="none" xmlns="http://www.w3.org/2000/svg">
<path d="M24.0664 0C10.778 0 0 10.778 0 24.0664C0 31.794 3.64542 38.6686 9.3109 43.0647L4.22828 48.0026L20.9097 48.1474L21.2572 31.4659L15.9864 36.5775C11.8837 33.9242 9.1661 29.3177 9.1661 24.0664C9.1661 15.8355 15.8355 9.1661 24.0664 9.1661C24.4277 9.1661 24.7832 9.18428 25.138 9.20954V0.0289608C24.7844 0.0135351 24.4238 0 24.0664 0ZM30.0903 3.76491L29.7428 20.4463L35.0136 15.3348C39.1163 17.988 41.8339 22.5945 41.8339 27.8458C41.8339 36.0767 35.1645 42.7462 26.9336 42.7462C26.5723 42.7462 26.2168 42.728 25.862 42.7027V51.8833C26.2156 51.8988 26.5762 51.9123 26.9336 51.9123C40.222 51.9123 51 41.1343 51 27.8458C51 20.1182 47.3546 13.2436 41.6891 8.84755L46.7717 3.90973L30.0903 3.76491Z" fill="white"/>
</svg>
